<?xml version="1.0" encoding="utf-8"?>
<!-- Generator: Adobe Illustrator 21.1.0, SVG Export Plug-In . SVG Version: 6.00 Build 0)  -->
<svg version="1.1" id="Layer_1" xmlns="http://www.w3.org/2000/svg" xmlns:xlink="http://www.w3.org/1999/xlink" x="0px" y="0px"
	 width="228px" height="77.9px" viewBox="0 0 228 77.9" style="enable-background:new 0 0 228 77.9;" xml:space="preserve">
<style type="text/css">
	.st0{fill:#11315F;}
	.st1{fill-rule:evenodd;clip-rule:evenodd;fill:#11315F;}
	.st2{fill-rule:evenodd;clip-rule:evenodd;fill:#D0935F;}
</style>
<path class="st0" d="M65.21,12.69c-6.72-6.72-16-10.88-26.26-10.88S19.41,5.97,12.69,12.69S1.82,28.7,1.82,38.95
	c0,10.25,4.16,19.54,10.88,26.26c6.72,6.72,16,10.88,26.26,10.88s19.54-4.16,26.26-10.88c6.72-6.72,10.88-16,10.88-26.26
	C76.09,28.7,71.93,19.41,65.21,12.69 M38.95,0C49.71,0,59.45,4.36,66.5,11.41C73.54,18.46,77.9,28.2,77.9,38.95
	c0,10.76-4.36,20.49-11.41,27.54C59.45,73.54,49.71,77.9,38.95,77.9S18.46,73.54,11.41,66.5C4.36,59.45,0,49.71,0,38.95
	C0,28.2,4.36,18.46,11.41,11.41C18.46,4.36,28.2,0,38.95,0z"/>
<path class="st0" d="M58.86,19.04c-5.1-5.1-12.14-8.25-19.91-8.25c-7.78,0-14.82,3.15-19.91,8.25c-5.1,5.1-8.25,12.14-8.25,19.91
	c0,7.78,3.15,14.82,8.25,19.91c5.1,5.1,12.14,8.25,19.91,8.25c7.78,0,14.82-3.15,19.91-8.25c5.1-5.1,8.25-12.14,8.25-19.91
	C67.11,31.18,63.96,24.14,58.86,19.04 M38.95,9.41c8.16,0,15.54,3.31,20.89,8.65c5.35,5.35,8.65,12.73,8.65,20.89
	c0,8.16-3.31,15.54-8.65,20.89c-5.35,5.35-12.73,8.65-20.89,8.65c-8.16,0-15.54-3.31-20.89-8.65c-5.35-5.35-8.65-12.73-8.65-20.89
	c0-8.16,3.31-15.54,8.65-20.89C23.41,12.72,30.8,9.41,38.95,9.41z"/>
<path class="st0" d="M46.8,57.21c0,0.97,0.31,1.77,0.92,2.41c0.62,0.62,1.44,0.94,2.46,0.94c1.04,0,1.9-0.36,2.59-1.08l-0.81-1.15
	c-0.53,0.53-1.1,0.79-1.71,0.79c-0.59,0-1.04-0.19-1.35-0.58c-0.32-0.39-0.47-0.84-0.47-1.36c0-0.51,0.15-0.95,0.46-1.3
	c0.31-0.36,0.76-0.54,1.36-0.54c0.55,0,1.18,0.27,1.61,0.66l0.73-1.19c-0.61-0.6-1.51-0.91-2.41-0.91c-0.98,0-1.79,0.32-2.43,0.95
	C47.12,55.47,46.8,56.26,46.8,57.21 M46.53,60.44v-1.35H43.9V54h-1.58v6.44H46.53z M35.55,57.21c0,0.97,0.31,1.77,0.92,2.41
	c0.62,0.62,1.44,0.94,2.46,0.94c1.04,0,1.9-0.36,2.59-1.08l-0.81-1.15c-0.53,0.53-1.1,0.79-1.71,0.79c-0.59,0-1.04-0.19-1.35-0.58
	c-0.32-0.39-0.47-0.84-0.47-1.36c0-0.51,0.15-0.95,0.46-1.3c0.31-0.36,0.76-0.54,1.36-0.54c0.55,0,1.18,0.27,1.61,0.66l0.73-1.19
	c-0.61-0.6-1.51-0.91-2.41-0.91c-0.98,0-1.79,0.32-2.43,0.95C35.87,55.47,35.55,56.26,35.55,57.21z M31.6,60.44v-2.61h0.65
	l1.36,2.61h1.77l-1.84-3.34v-0.02L35.27,54h-1.69l-1.33,2.49H31.6V54h-1.58v6.44H31.6z M28.67,60.44V54h-1.58v6.44H28.67z"/>
<path class="st0" d="M58.28,19.62c-4.95-4.95-11.78-8.01-19.33-8.01c-7.55,0-14.38,3.06-19.33,8.01
	c-4.95,4.95-8.01,11.78-8.01,19.33c0,7.55,3.06,14.38,8.01,19.33c4.95,4.95,11.78,8.01,19.33,8.01c7.55,0,14.38-3.06,19.33-8.01
	c4.95-4.95,8.01-11.78,8.01-19.33C66.29,31.4,63.23,24.57,58.28,19.62 M38.95,11.2c7.66,0,14.6,3.11,19.62,8.13
	c5.02,5.02,8.13,11.96,8.13,19.62c0,7.66-3.11,14.6-8.13,19.62c-5.02,5.02-11.96,8.13-19.62,8.13c-7.66,0-14.6-3.11-19.62-8.13
	c-5.02-5.02-8.13-11.96-8.13-19.62c0-7.66,3.11-14.6,8.13-19.62C24.35,14.31,31.29,11.2,38.95,11.2z"/>
<path class="st1" d="M39.05,70.39c1.03,0,1.87,0.83,1.87,1.86c0,1.03-0.84,1.87-1.87,1.87c-1.03,0-1.87-0.84-1.87-1.87
	C37.19,71.22,38.02,70.39,39.05,70.39"/>
<path class="st1" d="M34.68,70.41c0.64,0,1.16,0.52,1.16,1.16c0,0.64-0.52,1.16-1.16,1.16c-0.64,0-1.16-0.52-1.16-1.16
	C33.52,70.93,34.04,70.41,34.68,70.41"/>
<path class="st1" d="M43.57,70.39c0.64,0,1.16,0.52,1.16,1.16c0,0.64-0.52,1.16-1.16,1.16c-0.64,0-1.16-0.52-1.16-1.16
	C42.42,70.9,42.93,70.39,43.57,70.39"/>
<path class="st1" d="M38.94,50.65c-3.63-2-7.78-2.91-12.44-2.71c-2.17-8.97-3.8-15.38-4.88-19.24l-1.46,0.51
	c0.28,0.75,0.59,1.6,0.9,2.56c1.3,3.91,2.89,9.53,4.77,16.87C30.58,48.21,34.95,48.88,38.94,50.65 M39.18,50.79L39.18,50.79
	L39.18,50.79c-5.73-0.74-11.24-0.07-16.53,2.02c-1.45-7.74-3.78-14.82-7.01-21.25c-0.36-0.09,0.83-0.11,3.58-0.03
	c-0.39-1.2-0.79-2.38-1.2-3.54c1.24,0.03,2.39,0.08,3.45,0.17c-0.42-1.49-0.75-2.54-0.99-3.16c4.36,0.32,8.52,1.77,12.51,4.35
	c-4.18-1.56-7.63-2.48-10.35-2.76c1.51,5.16,3.14,11.8,4.89,19.92c3.48,0.46,9.02,1.51,11.62,4.24
	C39.15,50.76,39.17,50.77,39.18,50.79L39.18,50.79z M23.75,51.09c-1.65-6.95-3.6-13.11-5.85-18.46c0.01,0.02,0.5-0.18,1.48-0.61
	c0.38,1.17,0.76,2.35,1.12,3.55c1.45,4.7,2.81,9.64,4.08,14.81c2.82-0.44,5.42-0.64,7.8-0.59h0v0
	C29.68,49.79,26.8,50.22,23.75,51.09z"/>
<path class="st1" d="M39.48,50.65c3.63-2,7.78-2.91,12.44-2.71c2.17-8.97,3.8-15.38,4.88-19.24l1.46,0.51
	c-0.28,0.75-0.59,1.6-0.9,2.56c-1.3,3.91-2.89,9.53-4.77,16.87C47.84,48.21,43.47,48.88,39.48,50.65 M57.94,24.99
	c-4.36,0.32-8.52,1.77-12.51,4.35c4.18-1.56,7.63-2.48,10.35-2.76c-1.51,5.16-3.14,11.8-4.89,19.92c-5.77,0.77-9.64,2.18-11.62,4.24
	c-0.02,0.02-0.03,0.03-0.04,0.05c5.73-0.74,11.24-0.07,16.54,2.01c1.45-7.74,3.78-14.82,7.01-21.25c0.36-0.09-0.83-0.11-3.58-0.03
	c0.39-1.2,0.79-2.38,1.2-3.54c-1.24,0.03-2.39,0.08-3.45,0.17C57.37,26.66,57.7,25.61,57.94,24.99z M54.67,51.09
	c1.65-6.95,3.6-13.11,5.85-18.46c-0.01,0.02-0.5-0.18-1.48-0.61c-0.38,1.17-0.76,2.35-1.12,3.55c-1.45,4.7-2.81,9.64-4.08,14.81
	c-2.82-0.44-5.42-0.64-7.8-0.59h0v0C48.74,49.79,51.62,50.22,54.67,51.09z"/>
<path class="st2" d="M46.4,38.45c0.13,0.01,0.43,0.07,0.62,0.33c0.18,0.26,0.05,0.48-0.05,0.53c-0.09,0.04-0.32-0.03-0.51-0.24
	c-0.19-0.21-0.31-0.6-0.31-0.6S46.28,38.45,46.4,38.45 M46.18,37.32c0.04,0.02,0.12,0.2,0.12,0.2s0.19,0.38,0.25,0.49
	c0.06,0.11-0.04,0.13-0.04,0.13s-0.12,0-0.31,0.01c-0.18,0.02-0.16-0.13-0.19-0.29c-0.02-0.16,0.07-0.54,0.07-0.54
	S46.13,37.3,46.18,37.32z M44.07,37.02c0,0-0.16-0.21-0.24-0.27c-0.08-0.06-0.15-0.08-0.32-0.02c-0.17,0.05-0.4,0.11-0.4,0.11
	s-0.2,0.06-0.07,0.25c0.14,0.2,0.46,0.19,0.65,0.18c0.19-0.01,0.36-0.1,0.36-0.1S44.16,37.12,44.07,37.02L44.07,37.02z M42.87,37.47
	c-0.03,0.04-0.06,0.08-0.08,0.09c-0.02,0.01-0.12,0.13-0.12,0.13s-0.15-0.1-0.26-0.05c-0.11,0.04-0.11-0.02-0.11-0.02
	s0.03-0.2-0.05-0.29c-0.08-0.09-0.1-0.08-0.14-0.1c0.02-0.02-0.01,0,0.05-0.04c0.06-0.04,0.27-0.1,0.27-0.1s0.17,0.21,0.3,0.29
	C42.85,37.47,42.81,37.45,42.87,37.47z M45.81,38.73c-0.09-0.01-0.15,0-0.25,0.04c-0.1,0.04-0.02,0.05-0.12-0.02
	c-0.1-0.07-0.13-0.08-0.19-0.1c0.08-0.06,0.11-0.09,0.29-0.13c0.17-0.04,0.19,0.02,0.23,0.12C45.81,38.74,45.8,38.69,45.81,38.73z
	 M45.45,40.56c0.09,0.09,0.34,0.28,0.66,0.25c0.31-0.03,0.4-0.28,0.37-0.38c-0.03-0.1-0.23-0.22-0.52-0.23
	c-0.29,0-0.65,0.16-0.65,0.16S45.36,40.46,45.45,40.56z M44.44,41.13c0.05,0.02,0.23-0.05,0.23-0.05s0.41-0.1,0.53-0.13
	c0.12-0.03,0.07-0.11,0.07-0.11s-0.08-0.09-0.19-0.24c-0.11-0.15-0.2-0.04-0.34,0.05c-0.14,0.09-0.36,0.41-0.36,0.41
	S44.4,41.11,44.44,41.13z M42.84,39.73c0,0-0.26,0.02-0.36-0.01c-0.1-0.02-0.16-0.06-0.23-0.22c-0.07-0.16-0.18-0.38-0.18-0.38
	s-0.09-0.19,0.15-0.22c0.24-0.02,0.45,0.22,0.56,0.37c0.12,0.15,0.16,0.34,0.16,0.34S42.96,39.73,42.84,39.73L42.84,39.73z
	 M42.39,38.53c0.01-0.05,0.02-0.1,0.02-0.12c0-0.02,0.02-0.18,0.02-0.18s-0.17-0.05-0.21-0.16c-0.04-0.11-0.09-0.07-0.09-0.07
	s-0.13,0.15-0.25,0.15c-0.12,0-0.13-0.02-0.17-0.04c0,0.03-0.01-0.01,0,0.07c0.01,0.07,0.1,0.26,0.1,0.26s0.27-0.01,0.42,0.04
	C42.37,38.52,42.33,38.51,42.39,38.53z M45.27,39.93c-0.06-0.06-0.1-0.11-0.13-0.21c-0.03-0.1,0.02-0.05-0.1-0.08
	c-0.12-0.03-0.14-0.05-0.19-0.08c0.01,0.1,0,0.15,0.09,0.3c0.08,0.16,0.13,0.13,0.24,0.1C45.27,39.92,45.23,39.94,45.27,39.93z
	 M43.72,41.12c0,0,0.04-0.14,0.31-0.43c0.27-0.29,0.47-0.36,0.6-0.42c0.13-0.06,0.07-0.15,0.07-0.15s-0.11-0.16-0.19-0.33
	c-0.08-0.17-0.13-0.1-0.13-0.1s-0.12,0.11-0.26,0.21c-0.13,0.09-0.43,0.21-0.51,0.23c-0.08,0.03-0.1,0.13-0.1,0.13
	s0.02,0.25-0.03,0.37c-0.05,0.12-0.14,0.23-0.06,0.36C43.5,41.12,43.72,41.12,43.72,41.12z M28.41,31.16
	c0.01-0.02,0.03-0.05,0.06-0.08c0.03-0.03,0.08,0.01,0.18,0.03c0.1,0.02-0.02-0.06,0.21-0.07c0.23-0.01,0.31-0.13,0.3-0.36
	c-0.01-0.23,0.06-0.11,0.27-0.29c0.21-0.18,0.06-0.37-0.08-0.4c-0.14-0.03-0.3-0.27-0.23-0.37c0.07-0.1,0.29-0.04,0.29-0.04
	l0.59,0.27l0.05,0.02l0.86,0.39c0,0,0.18,0.13,0.16,0.24c-0.03,0.11-0.31,0.15-0.43,0.06c-0.12-0.09-0.36-0.08-0.35,0.2
	c0,0.28,0.13,0.25-0.05,0.39c-0.19,0.14-0.22,0.28-0.08,0.46c0.14,0.18,0.01,0.14,0.09,0.21c0.08,0.06,0.14,0.07,0.14,0.11
	c0,0.03-0.01,0.08-0.02,0.1L28.41,31.16z M31.28,32.46c-0.09-0.07-0.22-0.17-0.13-0.37c0.09-0.2,0.17-0.32,0.17-0.32
	s-0.3-0.09-0.35-0.21c-0.05-0.12-0.03-0.23,0.03-0.32c0.06-0.09,0.23-0.17,0.37-0.13c0.13,0.03,0.22,0.08,0.22,0.08l0.26-0.56
	c0,0,0.1-0.3-0.25-0.46l-1.4-0.63l0,0l0,0l0,0l0,0l0,0l-0.01,0l0,0l-0.01,0l0,0l0,0l0,0l-0.01,0l0,0l-0.01,0l0,0l0,0l0,0l0,0l0,0
	l-1.13-0.51c-0.35-0.16-0.51,0.12-0.51,0.12l-0.26,0.56c0,0,0.09,0.03,0.2,0.11c0.11,0.08,0.17,0.26,0.14,0.36
	c-0.03,0.1-0.1,0.2-0.22,0.24c-0.12,0.04-0.39-0.13-0.39-0.13c-0.23,0.32-0.7,0.24-0.7,0.24c-0.07-0.03-0.15,0-0.19,0.06
	c-0.09-0.03-0.21-0.04-0.3,0.05c-0.15,0.17-0.2,0.36-0.21,0.41c-0.01,0.05,0.02,0.17,0.09,0.19c0.02,0.01,0.06,0.03,0.11,0.05
	c-0.02,0.07,0.01,0.15,0.08,0.18c0.07,0.03,0.15,0.01,0.19-0.06l4.2,1.91c-0.02,0.07,0.01,0.15,0.08,0.18
	c0.07,0.03,0.15,0.01,0.19-0.06l0.15,0.07c-0.02,0.07,0.01,0.15,0.08,0.18c0.07,0.03,0.15,0.01,0.19-0.06l7.42,3.34
	c-0.02,0.07,0.01,0.15,0.08,0.18c0.07,0.03,0.15,0.01,0.19-0.06l0.9,0.41c-0.02,0.07,0.01,0.15,0.08,0.18
	c0.07,0.03,0.15,0.01,0.19-0.06l0.07,0.03c0.12,0.11,0.49,0.77,0.54,0.84c0.06,0.07,0.06,0.09-0.03,0.21
	c-0.09,0.11-0.32,0.65-0.11,0.91c0.21,0.27,0.74,0.54,0.82,0.63c0.07,0.08,0.31,0.29,0.29,0.39c-0.02,0.1,0.15-0.09,0.2,0.33
	c0.01,0.1,0.06-0.16,0.11,0.01c0.05,0.17,0.3,0.43,0.58,0.57c0.28,0.14,0.72,0.26,0.93,0.2c0.21-0.06,0.43-0.2,0.54-0.01
	c0.1,0.2,0.21,0.29,0.46,0.35c0.25,0.06,0.65-0.07,0.34-0.34c-0.31-0.27-0.44-0.03-0.42-0.08c0.02-0.05-0.08-0.11,0.13-0.22
	c0.22-0.12,0.72-0.17,0.72-0.17s0.3,0.12,0.61,0.02c0.31-0.1,0.36-0.28,0.36-0.28s0.53-0.14,0.82-0.2c0.29-0.06,0.42-0.24,0.42-0.24
	l-0.66-0.3c0,0-0.05,0.06-0.22,0.13c-0.17,0.07-0.36,0.17-0.39,0.05c-0.03-0.12-0.38-0.46-0.77-0.53c-0.05-0.01-0.11-0.02-0.16-0.02
	c0.02-0.08-0.07-0.14,0.02-0.12c0.09,0.02,0.22-0.1,0.22-0.1l-1.79-0.81l1.79,0.81c0,0,0-0.17-0.07-0.23
	c-0.07-0.05,0.03-0.02,0.08-0.09c0.04,0.04,0.08,0.07,0.12,0.11c0.3,0.25,0.79,0.28,0.9,0.23c0.11-0.06,0.16,0.16,0.22,0.33
	c0.06,0.17,0.04,0.25,0.04,0.25l0.66,0.3c0,0,0.05-0.21-0.09-0.47c-0.15-0.26-0.39-0.75-0.39-0.75s0.11-0.16-0.02-0.46
	c-0.13-0.3-0.41-0.45-0.41-0.45s-0.29-0.42-0.34-0.66c-0.06-0.24-0.08-0.33-0.03-0.35c0.34-0.12-0.09,0.33,0.32,0.39
	c0.41,0.06,0.37-0.44,0.16-0.59c-0.21-0.15-0.36-0.28-0.57-0.23c-0.22,0.05-0.25-0.01-0.34-0.21c-0.09-0.2-0.47-0.45-0.76-0.57
	c-0.29-0.12-0.65-0.11-0.81-0.06c-0.16,0.05-0.04-0.14-0.14-0.11c-0.51,0.17-0.37-0.08-0.38-0.07c-0.06,0.08-0.32,0.2-0.43,0.2
	c-0.11,0-0.67-0.22-1.01-0.21c-0.34,0.01-0.59,0.54-0.62,0.68c-0.03,0.14-0.05,0.15-0.14,0.15c-0.09,0-0.83,0.16-0.99,0.14
	c-0.01,0-0.02,0-0.04,0L41.1,36.9c0.02-0.07-0.01-0.15-0.08-0.18h0c-0.07-0.03-0.15,0-0.19,0.06l-0.89-0.41
	c0.02-0.07-0.01-0.15-0.08-0.18c-0.07-0.03-0.15,0-0.19,0.06l-7.42-3.34c0.02-0.07-0.01-0.15-0.08-0.18c-0.07-0.03-0.15,0-0.19,0.06
	l-0.15-0.07c0.02-0.07-0.01-0.15-0.08-0.18c-0.07-0.03-0.15,0-0.19,0.06L31.28,32.46z M43.67,38.45c0.09-0.22,0.34-0.31,0.56-0.22
	c0.13,0.06,0.21,0.17,0.24,0.29c0.04-0.11,0.06-0.18,0.06-0.18c0.01-0.03,0.04-0.13,0.03-0.35c-0.01-0.22-0.2-0.5-0.2-0.5
	s-0.08,0.03-0.21,0.11c-0.12,0.08-0.56,0.14-0.76,0.1l-0.02-0.01l-0.01,0l0,0.01c-0.04,0.02-0.17,0.1-0.35,0.37
	c-0.02,0.03-0.04,0.06-0.05,0.09l-1.19-0.54l-0.4-0.18l-0.1-0.05l0.1,0.05l0.4,0.18l1.19,0.54c-0.13,0.26-0.09,0.54-0.08,0.6
	l-0.01,0.01l0.01,0.01c0.17,0.1,0.42,0.5,0.45,0.65c0.02,0.15,0.05,0.23,0.05,0.23s0.33-0.04,0.5-0.18
	c0.08-0.07,0.14-0.12,0.18-0.17c0.08-0.08,0.14-0.19,0.21-0.31c-0.11,0.07-0.26,0.08-0.39,0.02C43.68,38.92,43.58,38.67,43.67,38.45
	z M45.7,36.77c0,0-0.08,0.12-0.12,0.52c-0.04,0.4,0.04,0.59,0.08,0.73c0.04,0.14-0.07,0.15-0.07,0.15s-0.19,0.03-0.37,0.08
	c-0.18,0.05-0.16-0.03-0.16-0.03s0.01-0.17-0.01-0.33c-0.02-0.16-0.13-0.46-0.16-0.54c-0.03-0.08,0.03-0.16,0.03-0.16
	s0.21-0.15,0.26-0.27c0.05-0.12,0.08-0.26,0.23-0.29C45.55,36.61,45.7,36.77,45.7,36.77z"/>
<path class="st2" d="M49.66,41.17c0.08,0.08,0.31,0.33,0.22,0.62c-0.11,0.34-0.26,0.3-0.39,0.6c-0.13,0.31-0.12,0.67-0.12,0.67
	s-0.28-0.05-0.35-0.28c-0.07-0.24,0.07-0.41,0.07-0.41s-0.31,0.47-0.79,0.38c-0.49-0.08-0.73-0.07-1.25-0.45
	c-0.52-0.37-0.81-0.51-1.05-0.33c-0.24,0.17-0.24,0.17-0.24,0.17s0.16-0.49,0.66-0.54c0.5-0.05,0.96,0.53,0.96,0.53
	s-0.25-0.26-0.2-0.6c0.05-0.34,0.32-0.79,0.91-0.69c0.59,0.1,0.67,0.88,0.43,1.07c-0.24,0.19-0.58,0.12-0.63-0.1
	c-0.06-0.22,0.1-0.43,0.1-0.43s0.01-0.19-0.21-0.03c-0.22,0.17-0.14,0.8,0.42,0.82c0.56,0.03,0.64-0.6,0.54-0.92
	c-0.1-0.32-0.6-0.63-1-0.49c-0.29-0.4-0.16-0.46,0.04-0.42c-0.16-0.12-0.19-0.27,0.3-0.35c0.16,0.41,0.73,0.56,1.04,0.4
	c0.31-0.16,0.74-0.7,0.35-1.1c-0.39-0.41-0.93,0.01-0.91,0.3c0.02,0.29,0.16,0.15,0.16,0.15s0.05-0.28,0.26-0.41
	c0.21-0.13,0.49,0.08,0.5,0.41c0.01,0.33-0.64,0.85-1.11,0.48c-0.46-0.38-0.31-0.92-0.08-1.22c0.23-0.3,0.59-0.3,0.59-0.3
	s-0.75,0.09-1.04-0.33c-0.29-0.42-0.03-0.91-0.03-0.91s0,0,0.03,0.32c0.03,0.31,0.32,0.43,0.95,0.55c0.63,0.12,0.79,0.31,1.17,0.62
	c0.39,0.31,0.23,0.89,0.23,0.89s0.04-0.24,0.26-0.36c0.23-0.12,0.45,0.06,0.45,0.06s-0.28,0.27-0.43,0.6
	c-0.15,0.33-0.01,0.41-0.2,0.75C50.12,41.16,49.77,41.17,49.66,41.17"/>
<path class="st2" d="M47.39,40.81c0,0-0.33,0.23-0.39,0.46c-0.06,0.23-0.04,0.26-0.04,0.26s-0.45-0.28-0.76-0.28
	c-0.32,0-0.39-0.05-0.39-0.05L47.39,40.81z"/>
<path class="st2" d="M47.87,39.7c0,0-0.05-0.4,0.07-0.6c0.13-0.2,0.16-0.21,0.16-0.21s-0.51-0.14-0.73-0.37
	c-0.22-0.23-0.3-0.25-0.3-0.25L47.87,39.7z"/>
<path class="st2" d="M30.93,32.88l0.01,2.09c0,0-0.78,0.24-0.64,1.03c0,0.02,0.01,0.05,0.01,0.07c0.16,0.73,0.52,0.94,0.43,1.44
	c-0.09,0.51-0.35,0.69-0.35,0.69s0.29-0.18,0.41-0.44c0.12-0.26,0.14,0.31-0.11,0.62c-0.25,0.32,0.61-0.36,0.64-0.84
	c0.03-0.48,0.02-0.64,0.02-0.64s0.14,1.12-0.12,1.44c-0.26,0.32,0.34-0.59,0.34-0.59s0.14,0.16,0.35,0.31
	c0.2,0.14-0.38-0.62-0.28-1.1c0.1-0.48,0.37-0.77,0.24-1.32c-0.14-0.55-0.74-0.67-0.74-0.67l-0.13-2.39l-0.06,0.29L30.93,32.88z"/>
<path class="st2" d="M30.34,35.52c0,0-0.03,0.76-0.25,0.94c-0.22,0.17-0.49,0.23-0.49,0.23s0.35-0.05,0.43-0.09
	c0.08-0.04,0.18-0.12,0.26-0.21c0.09-0.09,0.23-0.14,0.33-0.24c0.09-0.1,0.12-0.09,0.11-0.15c-0.01-0.07,0.62-0.12,0.62-0.12
	l0.52,0.24c0,0,0.3,0.28,0.44,0.29c0.14,0.01,0.55-0.17,0.55-0.17s-0.38-0.12-0.47-0.14c-0.09-0.02-0.06,0.01-0.23-0.09
	c-0.17-0.09-0.13-0.03-0.18-0.17c-0.05-0.15-0.01-0.16-0.07-0.23c-0.06-0.07-0.16-0.17-0.28-0.25c-0.12-0.07-0.34-0.17-0.34-0.17
	s-0.11,0-0.22,0.09c-0.11,0.09-0.3,0.29-0.36,0.31c-0.06,0.02-0.32-0.06-0.32-0.06H30.34z"/>
<path class="st2" d="M31.91,35.98c0,0,0.05,1.13,0.27,1.3c0.22,0.17,0.49,0.23,0.49,0.23s-0.35-0.05-0.43-0.09
	c-0.08-0.04-0.04,0.23-0.12,0.14c-0.05-0.05-0.12,0.21-0.19,0.16c-0.05-0.03-0.24-0.71-0.28-0.75c-0.09-0.1-0.12-0.09-0.11-0.15
	c0.01-0.07-0.62-0.12-0.62-0.12l-0.52,0.74c0,0-0.3-0.22-0.44-0.2c-0.14,0.01-0.55-0.17-0.55-0.17s0.38-0.12,0.47-0.14
	c0.09-0.02,0.06,0.01,0.23-0.09c0.17-0.09,0.13-0.03,0.18-0.17c0.05-0.15,0.01-0.16,0.07-0.23c0.06-0.07,0.16-0.17,0.28-0.25
	c0.12-0.07,0.34-0.17,0.34-0.17s0.11,0,0.22,0.09c0.11,0.09,0.3,0.29,0.36,0.31c0.06,0.02-0.08-0.47-0.08-0.47L31.91,35.98z"/>
<path class="st2" d="M30.8,35.3c0,0-0.21-0.18-0.3-0.11c-0.08,0.06-0.03,0.22-0.18,0.27c-0.15,0.05-0.38,0.22-0.44,0.28
	c-0.06,0.06,0.14,0.13,0.14,0.13l-0.21,0.22c0,0,0.31-0.12,0.37-0.14c0.06-0.03-0.13-0.04,0.13-0.13c0.26-0.1,0.32-0.07,0.35-0.07
	c0.04,0-0.01,0.01,0.12-0.01c0.13-0.01,0.14,0.22,0.21-0.06c0.07-0.28,0.03-0.2,0.02-0.33c-0.01-0.13-0.12-0.11-0.12-0.11L30.8,35.3
	z"/>
<path class="st0" d="M53.69,65.76l2.61,4.51l1.1-0.64l-2.61-4.51L53.69,65.76z M59.46,63.87c-0.31-0.44-0.69-0.67-1.14-0.72
	c-0.45-0.05-0.88,0.07-1.26,0.34c-0.39,0.27-0.64,0.63-0.75,1.06c-0.11,0.44-0.01,0.88,0.3,1.32l2.07,2.95l2.19-1.54l-0.63-0.89
	l-1.14,0.8l-1.43-2.03c-0.21-0.3-0.18-0.55,0.06-0.72c0.26-0.18,0.51-0.1,0.75,0.24l0.16,0.23l1.04-0.73L59.46,63.87z M64.07,62.87
	l-0.37,0.37c-0.62,0.62-1.38,0.63-2.07-0.06c-0.7-0.7-0.71-1.45-0.07-2.08l0.37-0.37L64.07,62.87z M60.75,60.36
	c-0.58,0.58-0.88,1.21-0.9,1.88c-0.02,0.67,0.27,1.3,0.85,1.87c0.57,0.57,1.19,0.85,1.86,0.83c0.66-0.02,1.29-0.31,1.87-0.9
	l1.31-1.31l-3.68-3.68L60.75,60.36z M62.59,58.42l0.89,0.63l1.2-1.71l0.8,0.57l-0.91,1.3l0.89,0.63l0.92-1.3l0.77,0.55l-1.15,1.63
	l0.89,0.63l1.88-2.67l-4.26-3L62.59,58.42z M64.91,55.18l0.97,0.51l0.99-1.88l3.64,1.92l0.6-1.13l-4.61-2.43L64.91,55.18z
	 M66.8,51.62l1.02,0.38l0.74-1.99l3.86,1.44l0.45-1.19l-4.88-1.82L66.8,51.62z M71.72,44.11c0.42,0.08,0.74,0.27,0.97,0.58
	c0.23,0.32,0.31,0.67,0.24,1.07c-0.07,0.4-0.28,0.7-0.61,0.91c-0.33,0.21-0.7,0.28-1.12,0.2c-0.44-0.08-0.78-0.28-1.02-0.6
	c-0.25-0.31-0.33-0.67-0.25-1.07c0.07-0.4,0.28-0.7,0.62-0.91C70.89,44.09,71.28,44.03,71.72,44.11z M71.96,42.82
	c-0.77-0.14-1.45-0.01-2.05,0.4c-0.6,0.41-0.98,1-1.12,1.78c-0.15,0.78-0.01,1.47,0.41,2.07c0.42,0.6,1.01,0.97,1.77,1.11
	c0.74,0.14,1.41,0,2-0.41c0.59-0.41,0.96-1.01,1.11-1.79c0.15-0.78,0.01-1.47-0.39-2.07C73.28,43.32,72.71,42.95,71.96,42.82z
	 M69.47,39.14l2.11,0.01l0,0.52l-2.12,1.09l-0.01,1.43l2.71-1.47l0.01,0l2.48,1.42l0.01-1.37l-2-1.09l0-0.52l2.01,0.01l0.01-1.27
	l-5.21-0.04L69.47,39.14z M68.95,32.93L70,32.64l-0.55-2.06l3.98-1.06L73.1,28.3l-5.03,1.34L68.95,32.93z M67.69,28.61l4.89-1.78
	l-0.44-1.2l-4.89,1.78L67.69,28.61z M66.34,25.4l3.65-1.9l0.73,1.4l0.97-0.5l-2.05-3.93l-0.97,0.5l0.73,1.4l-3.65,1.9L66.34,25.4z
	 M62.03,18.88l3.85-3.51l-0.86-0.94l-3.85,3.5L62.03,18.88z M60.91,13.35c0.19-0.12,0.43-0.31,0.74-0.55l0.01,0.01l-0.42,0.82
	L60.8,14.6l-0.78-0.67L60.91,13.35z M58.19,15.14l0.95-0.63l1.24,1.05l-0.46,1.04l1,0.85l2.03-5.11l-1.02-0.87l-4.72,2.82
	L58.19,15.14z M56.15,13.61l2.24-3.45l1.33,0.86l0.6-0.92l-3.72-2.42L56,8.6l1.33,0.86l-2.24,3.45L56.15,13.61z M52.18,11.31
	l0.92-1.92l2.88-2.03l-1.31-0.63l-1.07,0.88C53.41,7.78,53.2,7.96,53,8.15l-0.01-0.01l0.04-0.81l0.01-1.38l-1.31-0.63l0.22,3.52
	l-0.92,1.92L52.18,11.31z M46.27,6.42C46.39,6,46.61,5.7,46.94,5.5c0.34-0.2,0.7-0.25,1.09-0.14c0.39,0.11,0.67,0.34,0.85,0.68
	c0.18,0.35,0.22,0.72,0.1,1.13c-0.06,0.22-0.17,0.43-0.31,0.61L48.3,7.16l-0.9,0.59l0.39,0.59c-0.17,0.04-0.36,0.02-0.58-0.04
	c-0.39-0.11-0.68-0.34-0.86-0.7C46.18,7.24,46.15,6.84,46.27,6.42z M45,6.06c-0.21,0.75-0.14,1.44,0.21,2.08
	c0.35,0.64,0.91,1.06,1.68,1.28c0.54,0.15,1.06,0.15,1.56-0.01l0.38,0.63l0.91-0.59l-0.41-0.57c0.46-0.38,0.77-0.83,0.91-1.35
	c0.2-0.73,0.13-1.41-0.23-2.03c-0.35-0.63-0.92-1.05-1.68-1.26c-0.76-0.21-1.47-0.14-2.09,0.21C45.62,4.79,45.21,5.33,45,6.06z
	 M34.88,5.81c-0.04-0.43,0.06-0.79,0.3-1.09c0.24-0.31,0.57-0.48,0.97-0.51c0.4-0.03,0.75,0.08,1.04,0.34
	c0.29,0.26,0.45,0.6,0.49,1.03c0.02,0.23,0,0.46-0.08,0.68L37.04,5.8L36.4,6.66l0.57,0.42c-0.15,0.09-0.33,0.15-0.56,0.16
	C36,7.28,35.66,7.16,35.36,6.89C35.08,6.61,34.91,6.25,34.88,5.81z M33.56,5.92c0.07,0.78,0.37,1.4,0.93,1.87
	c0.55,0.47,1.23,0.68,2.02,0.61c0.56-0.05,1.05-0.24,1.46-0.56l0.57,0.46l0.65-0.87l-0.58-0.4c0.3-0.52,0.43-1.05,0.38-1.58
	c-0.06-0.75-0.37-1.36-0.92-1.82c-0.55-0.46-1.23-0.66-2.02-0.6c-0.79,0.07-1.42,0.38-1.89,0.93C33.7,4.52,33.5,5.17,33.56,5.92z
	 M30.28,6.2c0.01-0.23-0.01-0.53-0.03-0.92l0.01,0l0.44,0.81l0.54,0.9l-0.99,0.26L30.28,6.2z M30.2,9.45l0.02-1.14l1.57-0.42
	l0.59,0.97l1.27-0.34L30.6,3.96L29.3,4.3l-0.37,5.49L30.2,9.45z M28.68,9.9l-0.42-1.01l-1.9,0.78C26.22,9.73,26.1,9.79,26,9.84
	L26,9.83l0.03-0.07c0.04-0.08,0.11-0.29,0.16-0.52l0.78-3.42l-0.3-0.73l-3.64,1.5l0.42,1.01l1.77-0.73
	c0.14-0.06,0.27-0.12,0.36-0.17l0.01,0.01l-0.03,0.06c-0.04,0.09-0.11,0.3-0.16,0.53l-0.77,3.4l0.31,0.74L28.68,9.9z M20.77,10.31
	c-0.06-0.22-0.16-0.51-0.3-0.87l0.01-0.01l0.66,0.65l0.79,0.7l-0.87,0.55L20.77,10.31z M21.66,13.44l-0.32-1.09l1.37-0.87l0.85,0.75
	l1.11-0.7l-4.27-3.46l-1.13,0.71l1.28,5.35L21.66,13.44z M15.58,14.97c-0.29-0.32-0.42-0.67-0.42-1.05c0.01-0.39,0.16-0.72,0.47-1
	c0.3-0.27,0.64-0.38,1.03-0.35c0.39,0.03,0.72,0.2,1.01,0.52c0.16,0.17,0.27,0.37,0.35,0.59l-0.72-0.03l0.01,1.08l0.71-0.01
	c-0.06,0.16-0.18,0.32-0.34,0.47c-0.3,0.27-0.65,0.39-1.05,0.35C16.23,15.49,15.88,15.3,15.58,14.97z M14.6,15.85
	c0.52,0.58,1.14,0.89,1.87,0.93c0.73,0.04,1.39-0.2,1.98-0.73c0.42-0.38,0.69-0.82,0.83-1.32l0.73,0.02l0-1.08l-0.7,0.04
	c-0.07-0.59-0.29-1.09-0.65-1.49c-0.51-0.56-1.12-0.86-1.84-0.9c-0.72-0.04-1.38,0.21-1.97,0.74c-0.59,0.53-0.91,1.16-0.95,1.88
	C13.86,14.65,14.1,15.29,14.6,15.85z M8.88,24.17c-0.38-0.2-0.63-0.48-0.75-0.85c-0.12-0.37-0.09-0.74,0.1-1.1
	c0.19-0.35,0.48-0.58,0.85-0.68c0.38-0.1,0.75-0.05,1.13,0.15c0.21,0.11,0.38,0.26,0.53,0.44l-0.69,0.22l0.38,1.01l0.66-0.25
	c0,0.17-0.06,0.36-0.17,0.56c-0.19,0.36-0.48,0.59-0.87,0.68C9.66,24.44,9.27,24.38,8.88,24.17z M8.26,25.33
	c0.69,0.37,1.38,0.45,2.08,0.24c0.7-0.21,1.24-0.66,1.61-1.36c0.26-0.49,0.37-1.01,0.33-1.53l0.69-0.23l-0.37-1.02l-0.65,0.27
	c-0.27-0.53-0.64-0.93-1.12-1.19c-0.67-0.36-1.35-0.43-2.03-0.22c-0.69,0.21-1.22,0.67-1.6,1.37c-0.38,0.7-0.46,1.4-0.25,2.09
	C7.15,24.45,7.59,24.97,8.26,25.33z M10.03,28.13L8,27.47L5.6,24.88l-0.45,1.38l1.01,0.94c0.19,0.18,0.4,0.36,0.62,0.53l0,0.01
	l-0.81,0.07l-1.37,0.17l-0.45,1.38l3.46-0.68l2.03,0.66L10.03,28.13z M9.25,30.42l-1.07-0.24l-0.47,2.07L3.7,31.33l-0.28,1.24
	l5.08,1.16L9.25,30.42z M5.04,36.62c-0.21-0.09-0.5-0.18-0.87-0.29l0-0.01l0.91-0.13l1.03-0.2l-0.09,1.02L5.04,36.62z M8.07,37.81
	L7.01,37.4l0.15-1.62l1.12-0.22l0.12-1.31l-5.35,1.29l-0.12,1.33l5.03,2.24L8.07,37.81z M4.15,42.42l-0.04-0.43
	c-0.02-0.21-0.01-0.37,0.03-0.49c0.06-0.21,0.24-0.33,0.53-0.35c0.41-0.03,0.66,0.19,0.69,0.61l0.05,0.55L4.15,42.42z M8.25,42.07
	L6.5,42.22l-0.05-0.6l1.67-1.07L8,39.14L6.27,40.3c-0.14,0.09-0.23,0.17-0.3,0.22l-0.01,0c-0.3-0.47-0.9-0.71-1.48-0.66
	c-0.75,0.06-1.25,0.46-1.43,1.09c-0.06,0.22-0.08,0.56-0.04,1.02l0.15,1.81l5.19-0.44L8.25,42.07z M6.01,47.26
	c-0.23-0.01-0.53,0-0.92,0.02l0-0.01l0.81-0.43l0.9-0.54l0.26,0.99L6.01,47.26z M9.26,47.34l-1.14-0.02l-0.41-1.57l0.97-0.59
	l-0.33-1.27l-4.59,3.04l0.34,1.3l5.49,0.38L9.26,47.34z M8.85,53.61c-0.39,0.18-0.76,0.2-1.13,0.08c-0.37-0.13-0.64-0.37-0.81-0.74
	c-0.17-0.36-0.17-0.73-0.03-1.09c0.15-0.36,0.41-0.63,0.8-0.81c0.21-0.1,0.44-0.15,0.67-0.15l-0.24,0.68l1.03,0.31l0.2-0.68
	c0.14,0.11,0.25,0.26,0.34,0.47c0.17,0.37,0.18,0.74,0.02,1.11C9.54,53.15,9.26,53.43,8.85,53.61z M9.4,54.81
	c0.71-0.32,1.19-0.83,1.45-1.5c0.26-0.68,0.22-1.38-0.11-2.11c-0.23-0.51-0.57-0.91-1.01-1.19l0.24-0.69L8.93,49l-0.18,0.68
	c-0.59-0.11-1.13-0.05-1.62,0.17c-0.69,0.31-1.16,0.81-1.4,1.48c-0.25,0.68-0.21,1.38,0.12,2.1c0.33,0.72,0.83,1.21,1.51,1.46
	C8.03,55.16,8.71,55.12,9.4,54.81z M12.67,55.11l-1.76,1.2L7.4,56.63l0.82,1.2l1.36-0.23c0.26-0.05,0.53-0.09,0.8-0.16l0.01,0.01
	l-0.44,0.68l-0.7,1.19l0.82,1.2l1.57-3.15l1.76-1.2L12.67,55.11z M14.02,57.12l-0.85,0.69l1.35,1.65l-3.19,2.61l0.81,0.99l4.03-3.3
	L14.02,57.12z M16.44,64.32c-0.19,0.12-0.44,0.31-0.75,0.54l-0.01-0.01l0.43-0.82l0.44-0.96l0.78,0.67L16.44,64.32z M19.17,62.54
	l-0.95,0.62l-1.23-1.06l0.47-1.04l-0.99-0.86l-2.06,5.1l1.02,0.88l4.74-2.79L19.17,62.54z M23.25,65.44l-1.12,1.71l-1.58-1.04
	l1.12-1.71l-1.07-0.7l-2.85,4.36l1.07,0.7l1.14-1.74l1.58,1.04L20.4,69.8l1.07,0.7l2.85-4.36L23.25,65.44z"/>
<polygon class="st1" points="41.02,4.83 43.42,5.04 43.33,6.08 40.93,5.87 "/>
<path class="st0" d="M228,61.77v-2.21h-4.23v-1.99h3.21v-2.21h-3.21v-1.92h4.02v-2.21h-6.6v10.54H228z M209.62,56.48
	c0,1.67,0.5,2.99,1.52,3.98c1.02,0.99,2.24,1.49,3.65,1.49c1.05,0,2.14-0.37,2.77-0.91h0.03l-0.01,0.44v0.29h2.15v-5.95h-3.77v2.2
	h1.49v0.81c-0.66,0.52-1.37,0.77-2.14,0.77c-0.84,0-1.56-0.29-2.15-0.87c-0.57-0.57-0.87-1.36-0.87-2.33c0-0.85,0.25-1.56,0.77-2.12
	c0.52-0.57,1.3-0.85,2.34-0.85c0.88,0,1.96,0.43,2.56,0.97l1.24-1.93c-1.06-0.93-2.42-1.4-4.05-1.4c-1.59,0-2.92,0.52-3.96,1.56
	C210.14,53.65,209.62,54.93,209.62,56.48z M209.1,61.77v-2.21h-4.23v-1.99h3.21v-2.21h-3.21v-1.92h4.02v-2.21h-6.6v10.54H209.1z
	 M201.43,61.77v-2.21h-4.3v-8.33h-2.58v10.54H201.43z M193.67,61.77v-2.21h-4.3v-8.33h-2.58v10.54H193.67z M177.18,56.44
	c0-0.87,0.27-1.58,0.8-2.15c0.55-0.57,1.22-0.87,2.05-0.87c0.83,0,1.5,0.29,2.03,0.87c0.55,0.57,0.81,1.28,0.81,2.15
	c0,0.9-0.27,1.65-0.81,2.25c-0.53,0.6-1.21,0.9-2.03,0.9c-0.83,0-1.5-0.29-2.05-0.9C177.45,58.09,177.18,57.34,177.18,56.44z
	 M174.51,56.44c0,1.58,0.52,2.89,1.55,3.93c1.03,1.05,2.36,1.58,3.96,1.58c1.61,0,2.93-0.53,3.96-1.58
	c1.03-1.05,1.55-2.36,1.55-3.93c0-1.53-0.52-2.81-1.55-3.83c-1.03-1.03-2.36-1.55-3.96-1.55c-1.61,0-2.93,0.52-3.96,1.55
	C175.03,53.62,174.51,54.9,174.51,56.44z M164.64,56.48c0,1.59,0.5,2.9,1.5,3.93c1.02,1.02,2.36,1.53,4.02,1.53
	c1.69,0,3.11-0.59,4.24-1.77l-1.33-1.89c-0.87,0.87-1.8,1.3-2.8,1.3c-0.96,0-1.69-0.31-2.21-0.94c-0.52-0.63-0.77-1.37-0.77-2.23
	c0-0.84,0.25-1.55,0.75-2.12c0.5-0.59,1.24-0.88,2.23-0.88c0.9,0,1.93,0.44,2.64,1.08l1.19-1.95c-1-0.99-2.48-1.49-3.95-1.49
	c-1.61,0-2.93,0.52-3.98,1.55C165.15,53.64,164.64,54.93,164.64,56.48z M160.25,61.77v-2.21h-4.23v-1.99h3.21v-2.21h-3.21v-1.92
	h4.02v-2.21h-6.6v10.54H160.25z M141.87,56.48c0,1.67,0.5,2.99,1.52,3.98c1.02,0.99,2.24,1.49,3.65,1.49c1.05,0,2.14-0.37,2.77-0.91
	h0.03l-0.01,0.44v0.29h2.15v-5.95h-3.77v2.2h1.49v0.81c-0.66,0.52-1.37,0.77-2.14,0.77c-0.84,0-1.56-0.29-2.15-0.87
	c-0.57-0.57-0.87-1.36-0.87-2.33c0-0.85,0.25-1.56,0.77-2.12c0.52-0.57,1.3-0.85,2.34-0.85c0.88,0,1.96,0.43,2.56,0.97l1.24-1.93
	c-1.06-0.93-2.42-1.4-4.05-1.4c-1.59,0-2.92,0.52-3.96,1.56C142.38,53.65,141.87,54.93,141.87,56.48z M136.61,55.45
	c0.13-0.44,0.27-1.05,0.43-1.81h0.03l0.43,1.81l0.59,2.05H136L136.61,55.45z M134.76,61.77l0.63-2.21h3.29l0.65,2.21h2.65
	l-3.58-10.54h-2.71l-3.58,10.54H134.76z M122.91,57.9c0,1.19,0.4,2.18,1.21,2.93c0.81,0.75,1.89,1.12,3.21,1.12
	c1.31,0,2.37-0.37,3.18-1.12c0.81-0.75,1.21-1.74,1.21-2.93v-6.66h-2.58v6.66c0,1.08-0.71,1.69-1.83,1.69
	c-1.12,0-1.83-0.62-1.83-1.69v-6.66h-2.58V57.9z M111.46,56.48c0,1.67,0.5,2.99,1.52,3.98c1.02,0.99,2.24,1.49,3.65,1.49
	c1.05,0,2.14-0.37,2.77-0.91h0.03l-0.01,0.44v0.29h2.15v-5.95h-3.77v2.2h1.49v0.81c-0.66,0.52-1.37,0.77-2.14,0.77
	c-0.84,0-1.56-0.29-2.15-0.87c-0.57-0.57-0.87-1.36-0.87-2.33c0-0.85,0.25-1.56,0.77-2.12c0.52-0.57,1.3-0.85,2.34-0.85
	c0.88,0,1.96,0.43,2.56,0.97l1.24-1.93c-1.06-0.93-2.42-1.4-4.05-1.4c-1.59,0-2.92,0.52-3.96,1.56
	C111.98,53.65,111.46,54.93,111.46,56.48z M103.87,61.77v-4.91c0-0.44-0.04-1.05-0.12-1.8h0.03l0.13,0.29
	c0.18,0.4,0.52,1.09,0.75,1.5l2.93,4.91h2.59V51.24h-2.58v4.92c0,0.44,0.04,1.05,0.12,1.8h-0.03l-0.13-0.29
	c-0.18-0.4-0.52-1.09-0.75-1.5l-2.92-4.92h-2.61v10.54H103.87z M95.23,55.45c0.13-0.44,0.27-1.05,0.43-1.81h0.03l0.43,1.81
	l0.59,2.05h-2.08L95.23,55.45z M93.39,61.77l0.63-2.21h3.29l0.65,2.21h2.65l-3.58-10.54h-2.71l-3.58,10.54H93.39z M91.02,61.77
	v-2.21h-4.3v-8.33h-2.58v10.54H91.02z M206.85,44.09v-2.21h-4.23v-1.99h3.21v-2.21h-3.21v-1.92h4.02v-2.21h-6.6v10.54H206.85z
	 M191.23,42.76c0.99,0.99,2.4,1.5,3.82,1.5c1.16,0,2.08-0.31,2.74-0.94c0.66-0.63,1-1.41,1-2.34c0-2.21-2.06-2.81-3.45-3.39
	c-0.69-0.25-1.21-0.63-1.21-1.09s0.37-0.75,1.12-0.75c0.81,0,1.72,0.4,2.33,0.93l1.09-2.11c-0.9-0.8-1.99-1.19-3.3-1.19
	c-1.12,0-2.03,0.29-2.76,0.9c-0.71,0.59-1.06,1.37-1.06,2.33c0,1.65,1.16,2.4,2.33,2.96c1.16,0.56,2.33,0.83,2.33,1.59
	c0,0.43-0.4,0.74-1.09,0.74c-0.87,0-1.87-0.5-2.53-1.09L191.23,42.76z M190.76,44.09v-2.21h-4.23v-1.99h3.21v-2.21h-3.21v-1.92h4.02
	v-2.21h-6.6v10.54H190.76z M175.8,44.09v-4.91c0-0.44-0.04-1.05-0.12-1.8h0.03l0.13,0.29c0.18,0.4,0.52,1.09,0.75,1.5l2.93,4.91
	h2.59V33.55h-2.58v4.92c0,0.44,0.04,1.05,0.12,1.8h-0.03l-0.13-0.29c-0.18-0.4-0.52-1.09-0.75-1.5l-2.92-4.92h-2.61v10.54H175.8z
	 M171.39,44.09V33.55h-2.58v10.54H171.39z M160.57,44.09v-4.13h3.83v4.13h2.58V33.55h-2.58v4.21h-3.83v-4.21h-2.58v10.54H160.57z
	 M147.29,38.8c0,1.59,0.5,2.9,1.5,3.93c1.02,1.02,2.36,1.53,4.02,1.53c1.69,0,3.11-0.59,4.24-1.77l-1.33-1.89
	c-0.87,0.87-1.8,1.3-2.8,1.3c-0.96,0-1.69-0.31-2.21-0.94c-0.52-0.63-0.77-1.37-0.77-2.23c0-0.84,0.25-1.55,0.75-2.12
	c0.5-0.59,1.24-0.88,2.23-0.88c0.9,0,1.93,0.44,2.64,1.08l1.19-1.95c-1-0.99-2.48-1.49-3.95-1.49c-1.61,0-2.93,0.52-3.98,1.55
	C147.81,35.95,147.29,37.25,147.29,38.8z M146.26,40.96v-2.21h-4.63v2.21H146.26z M133.63,44.09v-4.13h3.83v4.13h2.58V33.55h-2.58
	v4.21h-3.83v-4.21h-2.58v10.54H133.63z M124.06,44.09v-4.27h1.06l2.23,4.27h2.89l-3.01-5.47v-0.03l2.84-5.04h-2.77l-2.18,4.07h-1.06
	v-4.07h-2.58v10.54H124.06z M115.43,37.76c0.13-0.44,0.27-1.05,0.43-1.81h0.03l0.43,1.81l0.59,2.05h-2.08L115.43,37.76z
	 M113.58,44.09l0.63-2.21h3.29l0.65,2.21h2.65l-3.58-10.54h-2.71l-3.58,10.54H113.58z M110.77,44.09v-2.21h-4.16
	c-0.31,0-0.59,0.01-0.81,0.04v-0.03l0.1-0.1c0.13-0.12,0.43-0.46,0.71-0.85l4.08-5.79v-1.59h-7.96v2.21h3.88
	c0.31,0,0.59-0.01,0.81-0.04v0.03l-0.1,0.09c-0.13,0.13-0.43,0.47-0.71,0.87l-4.07,5.76v1.62H110.77z M97.05,37.76
	c0.13-0.44,0.27-1.05,0.43-1.81h0.03l0.43,1.81l0.59,2.05h-2.08L97.05,37.76z M95.2,44.09l0.63-2.21h3.29l0.65,2.21h2.65
	l-3.58-10.54h-2.71l-3.58,10.54H95.2z M86.71,44.09v-4.27h1.06L90,44.09h2.89l-3.01-5.47v-0.03l2.84-5.04h-2.77l-2.18,4.07h-1.06
	v-4.07h-2.58v10.54H86.71z M196.99,26.4v-2.21h-4.3v-8.33h-2.58V26.4H196.99z M184.05,20.08c0.13-0.44,0.27-1.05,0.43-1.81h0.03
	l0.43,1.81l0.59,2.05h-2.08L184.05,20.08z M182.21,26.4l0.63-2.21h3.29l0.65,2.21h2.65l-3.58-10.54h-2.71l-3.58,10.54H182.21z
	 M172.55,26.4v-4.91c0-0.44-0.04-1.05-0.12-1.8h0.03l0.13,0.29c0.18,0.4,0.52,1.09,0.75,1.5l2.93,4.91h2.59V15.86h-2.58v4.92
	c0,0.44,0.04,1.05,0.12,1.8h-0.03l-0.13-0.29c-0.18-0.4-0.52-1.09-0.75-1.5l-2.92-4.92h-2.61V26.4H172.55z M160.36,21.07
	c0-0.87,0.27-1.58,0.8-2.15c0.55-0.57,1.22-0.87,2.05-0.87c0.83,0,1.5,0.29,2.03,0.87c0.55,0.57,0.81,1.28,0.81,2.15
	c0,0.9-0.27,1.65-0.81,2.25c-0.53,0.6-1.21,0.9-2.03,0.9c-0.83,0-1.5-0.29-2.05-0.9C160.63,22.72,160.36,21.97,160.36,21.07z
	 M157.7,21.07c0,1.58,0.52,2.89,1.55,3.93c1.03,1.05,2.36,1.58,3.96,1.58c1.61,0,2.93-0.53,3.96-1.58c1.03-1.05,1.55-2.36,1.55-3.93
	c0-1.53-0.52-2.81-1.55-3.83c-1.03-1.03-2.36-1.55-3.96-1.55c-1.61,0-2.93,0.52-3.96,1.55C158.21,18.25,157.7,19.53,157.7,21.07z
	 M156.44,26.4V15.86h-2.58V26.4H156.44z M149.77,26.4v-8.33h3.2v-2.21h-8.98v2.21h3.2v8.33H149.77z M139.69,20.08
	c0.13-0.44,0.27-1.05,0.43-1.81h0.03l0.43,1.81l0.59,2.05h-2.08L139.69,20.08z M137.84,26.4l0.63-2.21h3.29l0.65,2.21h2.65
	l-3.58-10.54h-2.71l-3.58,10.54H137.84z M128.19,26.4v-4.91c0-0.44-0.04-1.05-0.12-1.8h0.03l0.13,0.29c0.18,0.4,0.52,1.09,0.75,1.5
	l2.93,4.91h2.59V15.86h-2.58v4.92c0,0.44,0.04,1.05,0.12,1.8h-0.03l-0.13-0.29c-0.18-0.4-0.52-1.09-0.75-1.5l-2.92-4.92h-2.61V26.4
	H128.19z M118.87,18.08h0.87c0.43,0,0.75,0.04,0.97,0.15c0.41,0.16,0.62,0.55,0.62,1.12c0,0.83-0.5,1.3-1.34,1.3h-1.12V18.08z
	 M118.87,26.4v-3.55h1.21l1.87,3.55h2.87l-2.05-3.68c-0.16-0.29-0.29-0.5-0.4-0.63v-0.03c1-0.52,1.58-1.69,1.58-2.87
	c0-1.52-0.72-2.59-1.95-3.07c-0.43-0.16-1.12-0.25-2.05-0.25h-3.67V26.4H118.87z M115.03,26.4v-2.21h-4.23V22.2h3.21v-2.21h-3.21
	v-1.92h4.02v-2.21h-6.6V26.4H115.03z M104.12,26.4v-8.33h3.2v-2.21h-8.98v2.21h3.2v8.33H104.12z M91.12,26.4v-4.91
	c0-0.44-0.04-1.05-0.12-1.8h0.03l0.13,0.29c0.18,0.4,0.52,1.09,0.75,1.5l2.93,4.91h2.59V15.86h-2.58v4.92c0,0.44,0.04,1.05,0.12,1.8
	h-0.03l-0.13-0.29c-0.18-0.4-0.52-1.09-0.75-1.5l-2.92-4.92h-2.61V26.4H91.12z M86.71,26.4V15.86h-2.58V26.4H86.71z"/>
</svg>
